# xmcd
#
# Track frame offsets: 
#        150
#        18529
#        35510
#        47759
#        65554
#        86350
#        108490
#        132299
#        150562
#        167992
#        184484
#        201021
#
# Disc length: 2850 seconds
#
# Revision: 3
# Processed by: cddbd v1.5.2PL0 Copyright (c) Steve Scherf et al.
# Submitted via: ExactAudioCopyFreeDBPlugin 1.0
#
DISCID=a40b200c
DTITLE=Sima Martausová - Dobrý deň, to som ja
DYEAR=2013
DGENRE=Pop-Folk
TTITLE0=Že-na
TTITLE1=Pod imelom
TTITLE2=Normálny život
TTITLE3=Nezrelé jablká
TTITLE4=Asi si ho vezmem späť
TTITLE5=Kam tento svet speje?
TTITLE6=Soľ nad zlato
TTITLE7=Horské chrámy
TTITLE8=Dobrý deň, to som ja
TTITLE9=Možno raz
TTITLE10=Vianočná
TTITLE11=Pamela
EXTD=
EXTT0=
EXTT1=
EXTT2=
EXTT3=
EXTT4=
EXTT5=
EXTT6=
EXTT7=
EXTT8=
EXTT9=
EXTT10=
EXTT11=
PLAYORDER=
